<svg width="370" height="370" viewBox="0 0 370 370" fill="none" xmlns="http://www.w3.org/2000/svg">
<rect width="370" height="370" rx="60" fill="#F7BA96"/>
<g clip-path="url(#clip0_261_102)">
<path d="M164.25 265.955C162.88 266.519 161.411 266.804 159.93 266.795C158.168 266.865 156.435 266.328 155.02 265.275C153.394 263.782 152.146 261.925 151.38 259.855L149.95 256.685L169.76 211.905H161.29L145.63 247.785L130.12 211.905H122.12L143.95 261.295C144.983 264.003 146.46 266.521 148.32 268.745C149.757 270.428 151.569 271.75 153.61 272.605C155.635 273.384 157.79 273.771 159.96 273.745C162.095 273.749 164.215 273.391 166.23 272.685C168.173 272.025 169.96 270.973 171.48 269.595L167.95 263.465C166.878 264.513 165.624 265.357 164.25 265.955Z" fill="white"/>
<path d="M343.54 207.745C344.265 207.778 344.989 207.661 345.666 207.402C346.344 207.143 346.961 206.746 347.478 206.237C347.995 205.729 348.402 205.118 348.672 204.445C348.943 203.772 349.071 203.05 349.05 202.325C349.066 201.635 348.934 200.95 348.663 200.315C348.392 199.68 347.989 199.111 347.48 198.645C346.953 198.151 346.334 197.766 345.657 197.512C344.981 197.258 344.262 197.14 343.54 197.165C342.815 197.142 342.093 197.264 341.416 197.525C340.739 197.786 340.122 198.181 339.6 198.685C339.09 199.177 338.689 199.77 338.42 200.426C338.152 201.082 338.022 201.786 338.04 202.495C338.026 203.191 338.157 203.882 338.426 204.525C338.695 205.167 339.095 205.746 339.6 206.225C340.122 206.729 340.739 207.123 341.416 207.384C342.093 207.645 342.815 207.768 343.54 207.745Z" fill="white"/>
<path d="M347.61 214.555H339.48V259.445H347.61V214.555Z" fill="white"/>
<path d="M101.18 211.965C98.4479 212.02 95.7755 212.775 93.4175 214.156C91.0595 215.537 89.0946 217.499 87.71 219.855V191.705H79.53V259.535H87.71V234.725C87.71 226.085 93.71 219.025 101.18 219.025C107.87 219.025 112.42 224.785 112.42 233.245V259.535H120.6V232.465C120.6 220.465 112.61 211.965 101.18 211.965Z" fill="white"/>
<path d="M196.26 252.105C193 252.105 190.68 248.855 190.68 245.225V218.935H201V211.775H190.68V199.045H182.5V211.775H174.5V218.935H182.5V245.785C182.78 253.965 188.36 259.725 196.26 259.725C198.355 259.713 200.441 259.465 202.48 258.985L201 251.465C199.455 251.884 197.861 252.099 196.26 252.105Z" fill="white"/>
<path d="M233.08 211.965C230.348 212.02 227.675 212.775 225.317 214.156C222.959 215.537 220.995 217.499 219.61 219.855V191.705H211.43V259.535H219.61V234.725C219.61 226.085 225.61 219.025 233.08 219.025C239.77 219.025 244.33 224.785 244.33 233.245V259.535H252.51V232.465C252.51 220.465 244.51 211.965 233.08 211.965Z" fill="white"/>
<path d="M312.49 211.585C309.257 211.7 306.108 212.64 303.342 214.317C300.577 215.994 298.286 218.352 296.69 221.165C295.349 218.369 293.265 215.996 290.665 214.306C288.065 212.616 285.05 211.675 281.95 211.585C276.95 211.585 271.83 214.935 269.13 219.675V211.465H260.95V259.465H269.13V231.965C269.13 224.805 274.13 218.585 281.4 218.585C287.53 218.585 291.9 223.695 291.9 231.035V259.465H300.08V230.365C300.08 223.665 305.08 218.655 312.16 218.655C318.47 218.655 322.84 223.765 322.84 231.105V259.535H330.95V230.535C330.95 219.395 323.45 211.585 312.49 211.585Z" fill="white"/>
<path d="M48.76 238.915C47.6977 237.436 46.8368 235.821 46.2 234.115C47.8762 234.064 49.5468 233.897 51.2 233.615C55.776 232.508 59.8348 229.867 62.7005 226.132C65.5662 222.396 67.066 217.792 66.95 213.085C66.95 200.535 58.3 191.705 45.95 191.705H20.95V259.545H29.13V198.955H45.46C53.36 198.955 58.75 204.625 58.75 212.955C58.75 221.285 53.36 227.365 45.46 227.365H44.72C44.72 226.885 44.66 226.425 44.65 225.985V216.865H36.84V226.515C36.982 232.54 38.8949 238.39 42.34 243.335C48.15 251.495 58.0299 256.455 71.7099 258.075L72.63 250.325C61.28 249.015 53.25 245.165 48.76 238.915Z" fill="white"/>
<path d="M79.95 281.295L75.73 279.615L71.47 290.345L72.54 290.765L74.18 286.625L76.78 287.625L78.17 292.975L79.52 293.515L78.11 288.065C78.9758 288.208 79.864 288.025 80.6023 287.55C81.3406 287.076 81.8763 286.344 82.1055 285.497C82.3348 284.65 82.2411 283.748 81.8428 282.966C81.4445 282.184 80.77 281.578 79.95 281.265V281.295ZM80.95 285.455C80.8502 285.768 80.6867 286.057 80.4697 286.304C80.2527 286.551 79.9869 286.75 79.6891 286.889C79.3913 287.028 79.0679 287.104 78.7393 287.112C78.4107 287.12 78.0841 287.059 77.78 286.935L74.6 285.675L76.46 280.985L79.64 282.255C79.9398 282.374 80.2117 282.555 80.4384 282.785C80.6651 283.015 80.8418 283.289 80.9573 283.591C81.0728 283.892 81.1247 284.214 81.1097 284.537C81.0947 284.859 81.013 285.175 80.87 285.465L80.95 285.455Z" fill="white"/>
<path d="M90.22 293.465C90.581 292.707 90.7526 291.873 90.72 291.035C90.6945 290.319 90.4427 289.629 90.0007 289.065C89.5587 288.501 88.9493 288.091 88.26 287.895C87.2505 287.638 86.1814 287.774 85.2677 288.274C84.354 288.774 83.6636 289.601 83.3354 290.59C83.0072 291.578 83.0655 292.654 83.4987 293.601C83.9318 294.549 84.7076 295.297 85.67 295.695C86.295 295.976 86.9891 296.066 87.6651 295.954C88.3411 295.842 88.9689 295.532 89.47 295.065L88.79 294.285C88.4165 294.615 87.9565 294.832 87.4641 294.91C86.9716 294.988 86.4672 294.924 86.01 294.725C85.3668 294.495 84.8324 294.033 84.5108 293.431C84.1892 292.828 84.1033 292.127 84.27 291.465L90.22 293.465ZM87.95 288.885C89.59 289.435 89.73 290.885 89.44 292.145L84.56 290.545C84.8144 289.894 85.3039 289.362 85.9316 289.055C86.5594 288.747 87.2797 288.687 87.95 288.885Z" fill="white"/>
<path d="M98.3099 290.995C97.7566 290.842 97.1717 290.846 96.6206 291.007C96.0695 291.167 95.5741 291.479 95.1899 291.905L95.6499 290.235L94.5399 289.935L91.3899 301.325L92.4999 301.625L93.8999 296.545C94.0305 297.101 94.3026 297.615 94.6898 298.035C95.0769 298.456 95.5661 298.769 96.1099 298.945C97.143 299.174 98.2244 298.997 99.1312 298.452C100.038 297.907 100.701 297.034 100.983 296.014C101.265 294.994 101.145 293.905 100.648 292.971C100.15 292.037 99.3136 291.33 98.3099 290.995ZM99.8499 295.685C99.7845 296.07 99.6402 296.437 99.4261 296.763C99.2121 297.089 98.9329 297.368 98.6061 297.581C98.2793 297.794 97.912 297.937 97.5271 298.002C97.1423 298.066 96.7483 298.05 96.3699 297.955C95.6504 297.672 95.0613 297.132 94.716 296.44C94.3707 295.748 94.2938 294.953 94.5 294.208C94.7061 293.463 95.1809 292.82 95.8326 292.404C96.4844 291.988 97.2671 291.828 98.0299 291.955C98.4037 292.067 98.7503 292.254 99.0478 292.507C99.3452 292.759 99.5872 293.07 99.7582 293.421C99.9293 293.771 100.026 294.154 100.041 294.543C100.057 294.933 99.992 295.322 99.8499 295.685Z" fill="white"/>
<path d="M110.95 294.115L110.56 295.795C110.406 295.254 110.114 294.762 109.712 294.368C109.311 293.973 108.814 293.69 108.27 293.545C107.233 293.363 106.165 293.585 105.288 294.167C104.41 294.749 103.789 295.645 103.553 296.672C103.317 297.698 103.484 298.776 104.019 299.682C104.554 300.589 105.417 301.256 106.43 301.545C106.978 301.65 107.544 301.608 108.071 301.423C108.598 301.239 109.067 300.919 109.43 300.495L109.07 302.045L110.19 302.305L112.02 294.375L110.95 294.115ZM110.05 298.115C109.904 298.873 109.471 299.546 108.841 299.993C108.212 300.44 107.434 300.627 106.67 300.515C105.972 300.245 105.395 299.733 105.044 299.072C104.694 298.411 104.593 297.646 104.761 296.917C104.928 296.188 105.353 295.544 105.957 295.103C106.561 294.661 107.304 294.453 108.05 294.515C108.423 294.62 108.771 294.797 109.075 295.037C109.379 295.277 109.633 295.575 109.821 295.913C110.01 296.251 110.13 296.624 110.174 297.008C110.219 297.393 110.187 297.783 110.08 298.155L110.05 298.115Z" fill="white"/>
<path d="M116.67 291.705C116.53 291.677 116.385 291.692 116.254 291.748C116.122 291.803 116.01 291.896 115.932 292.015C115.853 292.134 115.812 292.273 115.813 292.416C115.813 292.559 115.857 292.698 115.937 292.816C116.017 292.934 116.13 293.025 116.262 293.079C116.394 293.132 116.539 293.145 116.679 293.116C116.819 293.087 116.947 293.017 117.046 292.916C117.146 292.814 117.214 292.685 117.24 292.545C117.262 292.452 117.264 292.355 117.247 292.262C117.229 292.168 117.193 292.079 117.139 292C117.086 291.921 117.016 291.854 116.936 291.803C116.855 291.752 116.764 291.719 116.67 291.705ZM115.42 295.045L113.82 303.045L114.95 303.275L116.55 295.275L115.42 295.045Z" fill="white"/>
<path d="M120.66 297.785L120.96 296.105L119.82 295.895L118.39 303.895L119.52 304.095L120.26 299.975C120.415 299.228 120.849 298.569 121.473 298.13C122.097 297.692 122.865 297.508 123.62 297.615L123.82 296.515C123.227 296.403 122.614 296.463 122.054 296.688C121.494 296.913 121.01 297.294 120.66 297.785Z" fill="white"/>
<path d="M140.37 295.565L135.84 300.995L132.84 294.595L131.48 294.415L135.13 301.985L134.55 306.465L135.69 306.615L136.27 302.135L141.73 295.745L140.37 295.565Z" fill="white"/>
<path d="M145.19 299.465C144.374 299.333 143.536 299.449 142.787 299.799C142.037 300.148 141.41 300.714 140.986 301.424C140.562 302.134 140.361 302.955 140.409 303.781C140.456 304.606 140.751 305.399 141.254 306.055C141.757 306.711 142.446 307.201 143.231 307.462C144.015 307.722 144.86 307.741 145.656 307.516C146.452 307.291 147.162 306.832 147.694 306.199C148.226 305.566 148.555 304.788 148.64 303.965C148.732 303.44 148.714 302.901 148.587 302.384C148.46 301.866 148.228 301.38 147.903 300.957C147.579 300.534 147.17 300.183 146.703 299.926C146.236 299.669 145.721 299.512 145.19 299.465ZM147.5 303.845C147.38 304.36 147.115 304.829 146.735 305.197C146.355 305.565 145.878 305.815 145.359 305.919C144.841 306.022 144.304 305.974 143.812 305.78C143.32 305.586 142.895 305.254 142.587 304.825C142.279 304.395 142.101 303.886 142.075 303.358C142.049 302.83 142.175 302.306 142.439 301.848C142.703 301.39 143.094 301.018 143.564 300.776C144.034 300.534 144.564 300.433 145.09 300.485C145.475 300.534 145.846 300.661 146.179 300.86C146.513 301.058 146.802 301.324 147.028 301.639C147.254 301.954 147.413 302.313 147.494 302.693C147.575 303.072 147.577 303.465 147.5 303.845Z" fill="white"/>
<path d="M157.4 300.545L157.03 305.545C157.017 305.856 156.94 306.161 156.803 306.441C156.667 306.721 156.474 306.97 156.238 307.173C156.001 307.376 155.725 307.527 155.427 307.618C155.129 307.71 154.816 307.739 154.506 307.704C154.197 307.669 153.898 307.57 153.628 307.415C153.358 307.259 153.123 307.049 152.938 306.799C152.752 306.549 152.621 306.263 152.55 305.959C152.48 305.656 152.473 305.341 152.53 305.035L152.88 300.245L151.73 300.155L151.37 305.075C151.32 305.509 151.36 305.949 151.485 306.367C151.611 306.786 151.82 307.174 152.101 307.509C152.382 307.844 152.728 308.118 153.118 308.315C153.508 308.512 153.934 308.628 154.37 308.655C154.851 308.665 155.329 308.564 155.766 308.362C156.202 308.159 156.587 307.859 156.89 307.485L156.8 308.705L157.95 308.785L158.55 300.665L157.4 300.545Z" fill="white"/>
<path d="M162.56 302.565L162.65 300.855L161.5 300.795L161.09 308.925L162.24 308.985L162.45 304.795C162.51 304.042 162.853 303.339 163.409 302.827C163.965 302.315 164.694 302.033 165.45 302.035L165.5 300.915C164.905 300.888 164.314 301.028 163.794 301.32C163.274 301.611 162.847 302.043 162.56 302.565Z" fill="white"/>
<path d="M181.08 297.945L180.97 307.555L174.05 297.865H172.95L172.77 309.465H173.95L174.06 299.865L180.95 309.465H182.1L182.23 297.915L181.08 297.945Z" fill="white"/>
<path d="M192.95 301.215H191.8V302.945C191.519 302.456 191.116 302.049 190.631 301.763C190.145 301.478 189.593 301.323 189.03 301.315C187.992 301.405 187.026 301.886 186.329 302.661C185.632 303.436 185.256 304.447 185.276 305.49C185.296 306.532 185.712 307.527 186.439 308.275C187.165 309.022 188.149 309.465 189.19 309.515C189.757 309.492 190.307 309.316 190.782 309.006C191.257 308.697 191.64 308.264 191.89 307.755V309.355H193.04L192.95 301.215ZM189.22 308.515C188.461 308.444 187.755 308.097 187.236 307.539C186.717 306.98 186.422 306.251 186.407 305.488C186.392 304.726 186.659 303.986 187.155 303.408C187.652 302.83 188.344 302.455 189.1 302.355C189.859 302.425 190.565 302.773 191.084 303.331C191.603 303.889 191.898 304.619 191.913 305.381C191.928 306.143 191.662 306.884 191.165 307.462C190.668 308.04 189.976 308.415 189.22 308.515Z" fill="white"/>
<path d="M199.65 307.965C199.395 308.035 199.134 308.079 198.87 308.095C198.716 308.086 198.566 308.047 198.427 307.98C198.289 307.912 198.165 307.818 198.063 307.703C197.96 307.588 197.882 307.454 197.832 307.308C197.782 307.163 197.761 307.009 197.77 306.855L197.57 302.065L199.32 301.985L199.27 300.985L197.53 301.055L197.44 298.945H196.29L196.38 301.055L195.05 301.115V302.115H196.38L196.59 307.005C196.592 307.298 196.654 307.587 196.771 307.855C196.888 308.124 197.058 308.366 197.271 308.566C197.484 308.767 197.736 308.923 198.01 309.024C198.285 309.125 198.578 309.17 198.87 309.155C199.207 309.144 199.543 309.097 199.87 309.015L199.65 307.965Z" fill="white"/>
<path d="M208.88 300.385L207.73 300.465L208.05 305.465C208.077 305.773 208.041 306.084 207.943 306.378C207.845 306.672 207.689 306.943 207.483 307.174C207.276 307.405 207.025 307.592 206.744 307.722C206.463 307.852 206.158 307.924 205.849 307.932C205.539 307.94 205.231 307.885 204.944 307.77C204.656 307.654 204.395 307.481 204.177 307.262C203.959 307.042 203.788 306.78 203.675 306.491C203.562 306.203 203.509 305.894 203.52 305.585L203.21 300.795L202.06 300.865L202.38 305.785C202.388 306.221 202.486 306.651 202.666 307.048C202.846 307.445 203.106 307.801 203.429 308.095C203.752 308.388 204.132 308.612 204.545 308.753C204.958 308.894 205.395 308.949 205.83 308.915C206.309 308.86 206.768 308.696 207.174 308.436C207.579 308.176 207.92 307.827 208.17 307.415L208.25 308.625L209.4 308.555L208.88 300.385Z" fill="white"/>
<path d="M215.95 300.825L215.85 299.715C215.252 299.755 214.678 299.964 214.195 300.319C213.711 300.673 213.338 301.157 213.12 301.715L212.97 300.015L211.82 300.115L212.53 308.225L213.68 308.125L213.31 303.955C213.272 303.196 213.523 302.45 214.013 301.869C214.503 301.288 215.195 300.915 215.95 300.825Z" fill="white"/>
<path d="M225.3 298.795L224.16 298.915L224.35 300.635C224.023 300.177 223.583 299.81 223.074 299.57C222.564 299.33 222.002 299.225 221.44 299.265C220.397 299.432 219.459 299.994 218.82 300.834C218.18 301.675 217.889 302.729 218.006 303.779C218.123 304.828 218.639 305.792 219.448 306.471C220.257 307.15 221.296 307.492 222.35 307.425C222.912 307.348 223.443 307.122 223.888 306.771C224.333 306.419 224.676 305.954 224.88 305.425L225.06 307.015L226.2 306.885L225.3 298.795ZM222.3 306.405C221.541 306.4 220.809 306.117 220.245 305.608C219.68 305.1 219.322 304.402 219.238 303.647C219.155 302.892 219.351 302.133 219.79 301.513C220.229 300.893 220.88 300.456 221.62 300.285C222.38 300.29 223.111 300.573 223.675 301.081C224.24 301.59 224.598 302.288 224.682 303.043C224.765 303.797 224.569 304.557 224.13 305.177C223.691 305.796 223.04 306.234 222.3 306.405Z" fill="white"/>
<path d="M228.95 294.875L227.8 295.025L229.31 306.465L230.45 306.315L228.95 294.875Z" fill="white"/>
<path d="M243.27 299.705C244.025 299.409 244.653 298.857 245.044 298.147C245.435 297.436 245.564 296.611 245.41 295.815C245.346 295.343 245.184 294.89 244.935 294.485C244.686 294.079 244.355 293.73 243.964 293.459C243.573 293.188 243.129 293.002 242.662 292.911C242.195 292.821 241.714 292.829 241.25 292.935L236.78 293.735L238.78 305.115L239.92 304.915L239.14 300.515L241.9 300.025L245.9 303.855L247.34 303.595L243.27 299.705ZM238.95 299.465L238.07 294.465L241.45 293.875C241.766 293.81 242.093 293.812 242.408 293.879C242.724 293.946 243.023 294.077 243.286 294.265C243.548 294.453 243.769 294.693 243.935 294.969C244.101 295.246 244.208 295.555 244.25 295.875C244.329 296.194 244.341 296.526 244.285 296.85C244.229 297.174 244.106 297.483 243.925 297.758C243.744 298.032 243.507 298.266 243.231 298.444C242.955 298.623 242.645 298.742 242.32 298.795L238.95 299.465Z" fill="white"/>
<path d="M256.34 296.945C256.279 296.506 256.127 296.085 255.896 295.708C255.664 295.33 255.357 295.005 254.994 294.751C254.63 294.498 254.219 294.322 253.785 294.235C253.35 294.148 252.903 294.151 252.47 294.245C251.984 294.36 251.539 294.608 251.186 294.961C250.833 295.314 250.585 295.759 250.47 296.245L249.41 291.415L248.29 291.655L250.74 302.945L251.87 302.705L250.97 298.545C250.781 297.882 250.857 297.172 251.182 296.564C251.506 295.955 252.054 295.497 252.71 295.285C253.89 295.025 254.93 295.845 255.25 297.285L256.25 301.755L257.37 301.515L256.34 296.945Z" fill="white"/>
<path d="M264.53 291.285L263.68 298.175L259.47 292.595L258.25 292.915L263.43 299.665L262.91 303.755L264.11 303.435L264.66 299.145L265.74 290.965L264.53 291.285Z" fill="white"/>
<path d="M274.18 295.785C273.954 295.92 273.712 296.028 273.46 296.105C273.31 296.134 273.156 296.133 273.007 296.103C272.858 296.072 272.716 296.012 272.589 295.927C272.463 295.842 272.355 295.732 272.271 295.605C272.187 295.477 272.129 295.335 272.1 295.185L270.71 290.585L272.38 290.085L272.09 289.085L270.42 289.585L269.81 287.585L268.71 287.915L269.32 289.915L268.05 290.295L268.34 291.295L269.61 290.915L271.02 295.605C271.096 295.888 271.228 296.153 271.409 296.384C271.59 296.615 271.815 296.807 272.072 296.948C272.329 297.089 272.612 297.176 272.904 297.205C273.196 297.234 273.49 297.203 273.77 297.115C274.082 297.024 274.384 296.9 274.67 296.745L274.18 295.785Z" fill="white"/>
<path d="M282.75 289.195C282.638 288.766 282.439 288.366 282.164 288.019C281.889 287.671 281.546 287.385 281.155 287.177C280.764 286.969 280.334 286.845 279.893 286.812C279.451 286.779 279.007 286.838 278.59 286.985C278.121 287.151 277.708 287.443 277.395 287.83C277.083 288.216 276.884 288.682 276.82 289.175L275.19 284.465L274.1 284.845L277.9 295.755L278.95 295.465L277.55 291.465C277.285 290.83 277.276 290.116 277.526 289.475C277.776 288.833 278.265 288.313 278.89 288.025C280.02 287.625 281.16 288.315 281.65 289.705L283.15 294.025L284.24 293.645L282.75 289.195Z" fill="white"/>
<path d="M296.54 282.945C296.393 282.569 296.17 282.228 295.884 281.943C295.599 281.658 295.257 281.435 294.882 281.288C294.506 281.142 294.104 281.075 293.701 281.091C293.298 281.108 292.902 281.208 292.54 281.385C292.04 281.616 291.61 281.976 291.293 282.427C290.977 282.878 290.786 283.406 290.74 283.955C290.334 283.603 289.838 283.372 289.308 283.287C288.778 283.202 288.235 283.267 287.74 283.475C287.331 283.681 286.98 283.987 286.72 284.365C286.459 284.742 286.298 285.179 286.25 285.635L285.7 284.365L284.64 284.815L287.89 292.295L288.94 291.835L287.02 287.465C286.896 287.194 286.826 286.902 286.816 286.605C286.805 286.307 286.853 286.011 286.957 285.732C287.061 285.453 287.219 285.198 287.422 284.981C287.625 284.763 287.869 284.588 288.14 284.465C288.386 284.364 288.65 284.315 288.916 284.322C289.181 284.328 289.443 284.39 289.683 284.503C289.924 284.615 290.139 284.777 290.314 284.977C290.489 285.177 290.62 285.411 290.7 285.665L292.7 290.245L293.76 289.795L291.7 285.065C291.591 284.808 291.537 284.531 291.541 284.252C291.545 283.973 291.607 283.699 291.724 283.445C291.841 283.192 292.009 282.966 292.219 282.781C292.428 282.597 292.674 282.459 292.94 282.375C293.189 282.279 293.455 282.235 293.722 282.244C293.988 282.253 294.251 282.315 294.493 282.427C294.735 282.539 294.953 282.698 295.132 282.895C295.312 283.092 295.451 283.323 295.54 283.575L297.54 288.155L298.6 287.695L296.54 282.945Z" fill="white"/>
<path d="M185.95 141.465C181.97 135.752 179.758 128.995 179.59 122.035V110.885H188.59V121.465C188.59 121.975 188.59 122.465 188.67 123.055H189.53C198.65 123.055 204.88 116.185 204.88 106.415C204.88 96.6451 198.65 90.2051 189.53 90.2051H170.7V156.915C181.873 160.301 193.886 159.614 204.6 154.975C196.51 152.015 190.27 147.465 185.95 141.465Z" fill="white"/>
<path d="M190.1 81.7849C204.37 81.7849 214.36 91.9849 214.36 106.475C214.497 111.906 212.771 117.221 209.469 121.536C206.167 125.851 201.488 128.907 196.21 130.195C194.292 130.523 192.354 130.717 190.41 130.775C191.165 132.744 192.174 134.606 193.41 136.315C197.81 142.445 205.17 146.565 215.32 148.625C223.682 142.112 229.722 133.076 232.541 122.858C235.36 112.64 234.809 101.785 230.969 91.9057C227.13 82.026 220.206 73.6479 211.227 68.0154C202.248 62.3829 191.691 59.7963 181.125 60.6396C170.559 61.483 160.547 65.7112 152.575 72.6967C144.603 79.6822 139.096 89.0523 136.872 99.416C134.648 109.78 135.826 120.584 140.23 130.226C144.634 139.867 152.03 147.831 161.32 152.935V81.7849H190.1Z" fill="white"/>
</g>
<defs>
<clipPath id="clip0_261_102">
<rect width="328.1" height="249.07" fill="white" transform="translate(20.95 60.4648)"/>
</clipPath>
</defs>
</svg>
