<svg width="234" height="235" viewBox="0 0 234 235" fill="none" xmlns="http://www.w3.org/2000/svg">
<g clip-path="url(#clip0_281_115)">
<path d="M124.48 139.12C122.734 136.688 121.318 134.035 120.27 131.23C123.036 131.147 125.792 130.873 128.52 130.41C144.86 125.99 154.47 112.41 154.32 96.6901C154.32 76.0701 140.12 61.5701 119.83 61.5701H78.8301V173H92.2301V73.4801H119.06C132.06 73.4801 140.89 82.7901 140.89 96.4801C140.89 110.38 132.03 120.15 119.06 120.15H117.84C117.78 119.37 117.74 118.61 117.73 117.89V103H104.9V118.8C105.122 128.694 108.252 138.303 113.9 146.43C123.44 159.83 139.67 167.98 162.14 170.64L163.65 157.91C145 155.71 131.85 149.38 124.48 139.12Z" fill="#FDFDFD"/>
<path d="M41.47 27.6099L46.9 23.5099C47.4194 23.0907 48.021 22.7849 48.6658 22.6123C49.3106 22.4397 49.9845 22.404 50.6439 22.5077C51.3033 22.6113 51.9338 22.8519 52.4946 23.214C53.0554 23.576 53.5341 24.0515 53.9 24.6099C54.5651 25.4634 54.9353 26.5097 54.9552 27.5915C54.975 28.6734 54.6433 29.7326 54.01 30.6099L60.93 32.6799L58.71 34.3599L52.13 32.3599L49.44 34.3599L52.77 38.7699L51 40.1899L41.47 27.6099ZM52.1 25.9999C51.8856 25.6535 51.6007 25.3563 51.2638 25.1274C50.9269 24.8985 50.5455 24.7431 50.1446 24.6714C49.7436 24.5997 49.3321 24.6133 48.9367 24.7112C48.5414 24.8092 48.1711 24.9893 47.85 25.2399L44.4 27.8099L48.24 32.8799L51.68 30.2799C52.0042 30.0377 52.2744 29.7305 52.4732 29.378C52.6721 29.0255 52.7952 28.6354 52.8347 28.2326C52.8742 27.8298 52.8293 27.4232 52.7028 27.0388C52.5763 26.6543 52.371 26.3005 52.1 25.9999Z" fill="#FDFDFD"/>
<path d="M61.23 19.5601C62.0749 19.036 63.0617 18.7872 64.0541 18.8481C65.0465 18.909 65.9955 19.2766 66.77 19.9001C67.6755 20.6519 68.3944 21.6035 68.87 22.6801L61.67 26.7901C62.1461 27.4299 62.8372 27.8763 63.6163 28.0471C64.3953 28.218 65.2098 28.1019 65.91 27.7201C66.439 27.4845 66.8906 27.1041 67.2127 26.6228C67.5347 26.1415 67.7141 25.5789 67.73 25.0001L69.73 24.8201C69.73 24.8201 70.07 27.4801 66.86 29.3201C66.2324 29.6918 65.5344 29.9292 64.8102 30.0172C64.0861 30.1052 63.3516 30.042 62.6532 29.8314C61.9548 29.6209 61.3077 29.2676 60.7528 28.794C60.198 28.3204 59.7476 27.7368 59.43 27.0801C57.74 24.2301 58.5 21.1201 61.23 19.5601ZM62.23 21.1501C61.5359 21.5643 61.0155 22.2162 60.7654 22.9848C60.5154 23.7535 60.5525 24.5867 60.87 25.3301L66.26 22.2201C65.8577 21.5434 65.2055 21.0519 64.4441 20.8517C63.6827 20.6516 62.8731 20.7587 62.19 21.1501H62.23Z" fill="#FDFDFD"/>
<path d="M69.26 15.27L71.32 14.42L72.06 16.2C72.1943 15.5184 72.4906 14.879 72.924 14.336C73.3574 13.7929 73.9151 13.3622 74.55 13.08C77.46 11.88 80.36 13.19 81.63 16.26C82.9 19.33 81.77 22.34 78.86 23.54C78.2022 23.7813 77.4964 23.8626 76.8009 23.7774C76.1054 23.6922 75.4402 23.4429 74.86 23.05L77.4 29.21L75.34 30.06L69.26 15.27ZM79.57 17.11C78.71 15.03 76.91 14.11 75.13 14.84C74.2873 15.2656 73.6443 16.0036 73.3379 16.8965C73.0315 17.7895 73.0861 18.7668 73.49 19.62C73.8002 20.5097 74.4441 21.244 75.2857 21.6676C76.1273 22.0912 77.1007 22.171 78 21.89C79.82 21.15 80.43 19.21 79.57 17.11Z" fill="#FDFDFD"/>
<path d="M87.8999 8.64993C88.5728 8.48633 89.2757 8.49203 89.9458 8.66654C90.6159 8.84105 91.2324 9.17892 91.7399 9.64993L91.2399 7.74993L93.3899 7.17993L96.2499 17.9999L94.1099 18.5899L93.6299 16.7899C93.4242 17.4558 93.0546 18.0593 92.5548 18.545C92.0551 19.0308 91.4414 19.3832 90.7699 19.5699C87.7699 20.3599 85.0399 18.6699 84.1999 15.4799C83.3599 12.2899 84.8899 9.43993 87.8999 8.64993ZM92.7099 13.1999C92.5216 12.2725 91.9746 11.457 91.1881 10.9308C90.4016 10.4046 89.4391 10.2102 88.5099 10.3899C86.6699 10.8799 85.7699 12.6899 86.3499 14.8799C86.9299 17.0699 88.6099 18.1999 90.4499 17.7199C91.3448 17.4143 92.0834 16.7689 92.5063 15.9231C92.9292 15.0774 93.0023 14.0992 92.7099 13.1999Z" fill="#FDFDFD"/>
<path d="M98.0001 1.49008C98.1613 1.45694 98.3275 1.45676 98.4887 1.48953C98.65 1.5223 98.8029 1.58735 98.9384 1.68077C99.0739 1.77419 99.189 1.89405 99.277 2.03313C99.3649 2.17221 99.4238 2.32765 99.4501 2.49008C99.4832 2.65126 99.4834 2.81748 99.4506 2.97873C99.4179 3.13998 99.3528 3.29294 99.2594 3.4284C99.166 3.56386 99.0461 3.67902 98.907 3.76696C98.768 3.85489 98.6125 3.91378 98.4501 3.94008C98.2888 3.9747 98.1221 3.97597 97.9603 3.94382C97.7985 3.91167 97.645 3.84677 97.5092 3.75311C97.3734 3.65946 97.2582 3.53902 97.1706 3.39921C97.0831 3.25939 97.025 3.10315 97.0001 2.94008C96.9655 2.77879 96.9642 2.61212 96.9963 2.45032C97.0285 2.28852 97.0934 2.135 97.1871 1.9992C97.2807 1.8634 97.4012 1.74818 97.541 1.66063C97.6808 1.57308 97.837 1.51504 98.0001 1.49008ZM99.9001 6.14008L101.72 17.1401L99.5301 17.5001L97.7001 6.50008L99.9001 6.14008Z" fill="#FDFDFD"/>
<path d="M109.63 4.8999L109.82 6.8999C108.871 7.0227 108.006 7.50742 107.406 8.25281C106.806 8.99819 106.517 9.94659 106.6 10.8999L107.13 16.4599L104.91 16.6699L103.91 5.5299L106.12 5.3199L106.32 7.4299C106.586 6.74481 107.036 6.14626 107.62 5.69995C108.203 5.25364 108.899 4.97683 109.63 4.8999Z" fill="#FDFDFD"/>
<path d="M127.16 10.28L126.64 16.4L124.42 16.21L124.94 10.1L119.5 0L122.15 0.23L126.22 8.12L131.54 1L134.19 1.23L127.16 10.28Z" fill="#FDFDFD"/>
<path d="M139.31 7.00011C140.035 7.13321 140.725 7.41557 141.335 7.82928C141.945 8.24299 142.463 8.77901 142.855 9.40334C143.247 10.0277 143.505 10.7267 143.613 11.456C143.72 12.1854 143.675 12.9291 143.48 13.6401C143.349 14.3454 143.079 15.0176 142.686 15.6174C142.292 16.2172 141.783 16.7326 141.188 17.1336C140.594 17.5345 139.925 17.8128 139.221 17.9524C138.518 18.092 137.793 18.09 137.09 17.9465C136.387 17.803 135.72 17.5209 135.128 17.1167C134.535 16.7125 134.029 16.1942 133.639 15.5922C133.249 14.9902 132.982 14.3166 132.856 13.6105C132.729 12.9045 132.744 12.1802 132.9 11.4801C132.998 10.7515 133.245 10.051 133.628 9.42311C134.01 8.79521 134.519 8.25354 135.121 7.8324C135.724 7.41126 136.407 7.11983 137.128 6.97657C137.849 6.8333 138.592 6.84132 139.31 7.00011ZM141.31 13.1901C141.77 10.9701 140.81 9.19011 138.95 8.84011C137.09 8.49011 135.54 9.70011 135.09 11.9201C134.64 14.1401 135.59 15.9201 137.43 16.2701C139.27 16.6201 140.85 15.3601 141.3 13.1601L141.31 13.1901Z" fill="#FDFDFD"/>
<path d="M150 19.64C150.366 19.7843 150.758 19.8495 151.15 19.8313C151.543 19.813 151.927 19.7117 152.278 19.534C152.628 19.3564 152.937 19.1064 153.184 18.8006C153.431 18.4948 153.61 18.1401 153.71 17.76L155.78 11.63L157.89 12.34L154.29 23L152.18 22.29L152.7 20.75C152.196 21.1392 151.604 21.3985 150.976 21.5049C150.348 21.6113 149.704 21.5615 149.1 21.36C148.506 21.172 147.957 20.8636 147.488 20.4539C147.018 20.0442 146.639 19.5422 146.372 18.979C146.105 18.4159 145.958 17.8039 145.939 17.1812C145.919 16.5585 146.029 15.9385 146.26 15.36L148.35 9.19995L150.46 9.90995L148.41 15.98C148.262 16.3234 148.187 16.6934 148.187 17.0671C148.188 17.4409 148.265 17.8106 148.414 18.1534C148.563 18.4963 148.781 18.805 149.053 19.0606C149.326 19.3163 149.648 19.5134 150 19.64Z" fill="#FDFDFD"/>
<path d="M166.91 16.35L166.06 18.19C165.185 17.8274 164.205 17.8128 163.32 18.1493C162.435 18.4858 161.713 19.1479 161.3 20L159 25.08L157 24.16L161.61 14L163.61 14.93L162.73 16.85C163.311 16.3863 164.011 16.0939 164.749 16.0056C165.487 15.9173 166.236 16.0366 166.91 16.35Z" fill="#FDFDFD"/>
<path d="M180.12 37.7399L178.12 36.3799L177.86 21.3799L170.94 31.3799L169.11 30.1199L178.11 17.1699L180.11 18.5299L180.36 33.5299L187.29 23.5299L189.12 24.7899L180.12 37.7399Z" fill="#FDFDFD"/>
<path d="M193.69 34.9999C194.184 35.4819 194.551 36.0778 194.76 36.7352C194.97 37.3925 195.014 38.0913 194.89 38.7699L196.24 37.3399L197.86 38.8599L190.19 46.9999L188.56 45.4899L189.83 44.1399C189.154 44.3079 188.447 44.3045 187.773 44.1298C187.099 43.9552 186.479 43.6149 185.97 43.1399C183.72 41.0199 183.71 37.8099 185.97 35.4099C188.23 33.0099 191.43 32.8899 193.69 34.9999ZM192.37 41.4799C193.043 40.8324 193.438 39.948 193.469 39.0144C193.501 38.0808 193.168 37.1717 192.54 36.4799C191.15 35.1699 189.14 35.3699 187.59 37.0199C186.04 38.6699 185.96 40.6899 187.35 42.0199C188.087 42.6112 189.027 42.8882 189.967 42.7909C190.907 42.6935 191.77 42.2297 192.37 41.4999V41.4799Z" fill="#FDFDFD"/>
<path d="M195.3 47.75L199.69 44L198.43 42.54L199.91 41.27L201.16 42.74L203.49 40.74L204.93 42.43L202.61 44.43L204.17 46.25L202.69 47.51L201.13 45.69L196.83 49.38C196.546 49.575 196.348 49.8726 196.279 50.2103C196.21 50.5479 196.275 50.8991 196.46 51.19C196.722 51.4667 197.01 51.7179 197.32 51.94L196.06 53.64C195.626 53.3162 195.224 52.9512 194.86 52.55C194.561 52.2118 194.334 51.816 194.194 51.3869C194.053 50.9578 194.002 50.5045 194.043 50.0549C194.084 49.6053 194.217 49.1689 194.433 48.7725C194.649 48.3761 194.944 48.0282 195.3 47.75Z" fill="#FDFDFD"/>
<path d="M201.78 58.68C201.989 59.0141 202.266 59.3001 202.593 59.5194C202.92 59.7387 203.29 59.8863 203.678 59.9524C204.066 60.0185 204.464 60.0017 204.845 59.9031C205.227 59.8044 205.583 59.6262 205.89 59.3801L211.2 55.71L212.47 57.5401L203.26 63.9001L202 62.07L203.33 61.1501C202.694 61.1594 202.065 61.013 201.499 60.7236C200.932 60.4343 200.445 60.0108 200.08 59.4901C199.718 58.9847 199.464 58.4102 199.335 57.8024C199.205 57.1945 199.202 56.5664 199.326 55.9573C199.449 55.3483 199.698 54.7713 200.055 54.2624C200.411 53.7536 200.87 53.3239 201.4 53L206.75 49.3L208 51.1L202.73 54.73C202.396 54.9157 202.105 55.1685 201.874 55.4726C201.643 55.7767 201.478 56.1253 201.388 56.4966C201.299 56.8678 201.288 57.2536 201.355 57.6294C201.423 58.0052 201.567 58.363 201.78 58.68Z" fill="#FDFDFD"/>
<path d="M217.32 66.1701L215.53 67.1701C215.048 66.3532 214.271 65.7526 213.359 65.492C212.448 65.2315 211.47 65.331 210.63 65.7701L205.73 68.4401L204.67 66.4401L214.49 61.0901L215.55 63.0901L213.69 64.0901C214.427 64.0746 215.154 64.2601 215.793 64.6265C216.433 64.993 216.961 65.5265 217.32 66.1701Z" fill="#FDFDFD"/>
<path d="M220.44 73.2C220.698 73.8413 220.794 74.5365 220.719 75.2239C220.644 75.9112 220.4 76.5693 220.01 77.14L221.83 76.38L222.69 78.43L212.38 82.78L211.5 80.78L213.21 80.06C212.525 79.9451 211.88 79.6621 211.332 79.2362C210.784 78.8103 210.35 78.2549 210.07 77.62C208.86 74.76 210.16 71.82 213.19 70.54C216.22 69.26 219.23 70.35 220.44 73.2ZM216.61 78.61C217.499 78.2905 218.227 77.6345 218.636 76.7833C219.046 75.9321 219.105 74.954 218.8 74.06C218.06 72.3 216.15 71.67 214.06 72.55C211.97 73.43 211.06 75.25 211.83 77C212.255 77.8429 212.995 78.4845 213.89 78.7858C214.784 79.0872 215.762 79.024 216.61 78.61Z" fill="#FDFDFD"/>
<path d="M228.91 82.9999L213.91 87.7599L213.24 85.6399L228.24 80.8799L228.91 82.9999Z" fill="#FDFDFD"/>
<path d="M231.79 93.55L232.79 100.28C232.909 100.933 232.891 101.603 232.737 102.248C232.583 102.894 232.295 103.5 231.893 104.028C231.492 104.556 230.984 104.994 230.403 105.315C229.822 105.635 229.181 105.831 228.52 105.89C227.452 106.072 226.354 105.902 225.391 105.406C224.428 104.91 223.652 104.115 223.18 103.14L218.08 108.26L217.66 105.51L222.5 100.65L222 97.3L216.54 98.14L216.21 95.94L231.79 93.55ZM228.19 103.69C228.598 103.671 228.996 103.565 229.36 103.379C229.723 103.194 230.043 102.933 230.297 102.614C230.552 102.295 230.736 101.925 230.836 101.53C230.937 101.134 230.952 100.722 230.88 100.32L230.22 96L223.94 97L224.6 101.27C224.652 101.677 224.79 102.067 225.005 102.416C225.22 102.765 225.507 103.064 225.847 103.293C226.187 103.522 226.572 103.676 226.976 103.744C227.38 103.813 227.794 103.794 228.19 103.69Z" fill="#FDFDFD"/>
<path d="M227.48 115.75C227.399 114.899 226.984 114.115 226.326 113.57C225.668 113.024 224.821 112.762 223.97 112.84L218.26 112.94V110.72L234 110.44V112.66L227.67 112.78C228.175 113.105 228.594 113.548 228.89 114.07C229.186 114.593 229.351 115.18 229.37 115.78C229.397 116.413 229.292 117.044 229.062 117.634C228.833 118.224 228.483 118.761 228.036 119.209C227.589 119.657 227.053 120.008 226.464 120.239C225.874 120.469 225.243 120.575 224.61 120.55L218.39 120.66V118.43L224.39 118.33C226.24 118.25 227.51 117.23 227.48 115.75Z" fill="#FDFDFD"/>
<path d="M213.53 124.43L218.63 127.22L229.45 123.83L229.18 126.25L221 128.64L228.52 132.64L228.26 135.04L218.62 129.73L213.3 126.82L213.53 124.43Z" fill="#FDFDFD"/>
<path d="M219.58 138.29L225.21 139.55L225.63 137.68L227.53 138.1L227.11 139.98L230.11 140.65L229.62 142.82L226.62 142.15L226.1 144.49L224.2 144.06L224.73 141.72L219.19 140.49C218.866 140.379 218.512 140.399 218.202 140.545C217.893 140.69 217.652 140.95 217.53 141.27C217.454 141.648 217.428 142.035 217.45 142.42H215.32C215.325 141.88 215.378 141.341 215.48 140.81C215.572 140.369 215.753 139.951 216.012 139.583C216.272 139.214 216.603 138.902 216.987 138.666C217.371 138.43 217.799 138.275 218.245 138.211C218.691 138.146 219.145 138.173 219.58 138.29Z" fill="#FDFDFD"/>
<path d="M221.59 152.86C221.8 152.03 221.672 151.151 221.236 150.414C220.799 149.678 220.089 149.144 219.26 148.93L213.84 147.1L214.55 144.99L229.49 149.99L228.77 152.1L222.77 150.1C223.13 150.574 223.372 151.127 223.476 151.713C223.58 152.299 223.544 152.901 223.37 153.47C223.182 154.075 222.871 154.635 222.456 155.113C222.041 155.592 221.532 155.98 220.959 156.251C220.387 156.523 219.764 156.673 219.131 156.691C218.498 156.71 217.868 156.597 217.28 156.36L211.38 154.36L212.09 152.25L217.75 154.17C219.58 154.8 221.12 154.26 221.59 152.86Z" fill="#FDFDFD"/>
<path d="M213.13 172.07C213.295 171.756 213.395 171.411 213.422 171.056C213.449 170.702 213.404 170.346 213.289 170.01C213.174 169.674 212.991 169.365 212.752 169.102C212.513 168.839 212.223 168.627 211.9 168.48L206.12 165.48L207.12 163.48L212.79 166.48C214.3 167.27 215.79 166.97 216.43 165.75C216.589 165.408 216.677 165.037 216.69 164.659C216.703 164.282 216.64 163.906 216.505 163.553C216.37 163.201 216.165 162.879 215.903 162.607C215.641 162.335 215.327 162.118 214.98 161.97L209.45 159.08L210.45 157.08L220.36 162.27L219.36 164.27L217.68 163.38C218.028 163.878 218.241 164.458 218.297 165.063C218.353 165.668 218.251 166.277 218 166.83C217.65 167.462 217.13 167.984 216.499 168.337C215.869 168.691 215.152 168.861 214.43 168.83C214.837 169.468 215.076 170.2 215.123 170.955C215.17 171.711 215.025 172.466 214.7 173.15C214.433 173.693 214.054 174.175 213.589 174.563C213.124 174.951 212.583 175.237 212.001 175.403C211.419 175.569 210.808 175.61 210.208 175.526C209.609 175.441 209.034 175.231 208.52 174.91L202.76 171.91L203.76 169.91L209.42 172.91C211 173.62 212.48 173.32 213.13 172.07Z" fill="#FDFDFD"/>
<path d="M193.13 206.42L187.73 210.56C187.214 210.982 186.615 211.291 185.972 211.467C185.329 211.643 184.657 211.684 183.998 211.585C183.338 211.486 182.707 211.25 182.145 210.893C181.582 210.536 181.1 210.064 180.73 209.51C180.058 208.662 179.679 207.619 179.65 206.537C179.621 205.455 179.944 204.393 180.57 203.51L173.64 201.51L175.84 199.82L182.43 201.72L185.11 199.66L181.75 195.28L183.52 193.93L193.13 206.42ZM182.51 208.14C182.725 208.486 183.011 208.783 183.349 209.011C183.687 209.239 184.069 209.393 184.471 209.462C184.873 209.531 185.284 209.514 185.679 209.412C186.074 209.31 186.442 209.125 186.76 208.87L190.19 206.24L186.33 201.24L182.89 203.87C182.569 204.114 182.302 204.423 182.107 204.776C181.912 205.129 181.793 205.519 181.757 205.921C181.721 206.323 181.77 206.728 181.9 207.11C182.029 207.492 182.237 207.843 182.51 208.14Z" fill="#FDFDFD"/>
<path d="M173.33 214.69C172.487 215.215 171.503 215.468 170.511 215.412C169.519 215.357 168.569 214.996 167.79 214.38C166.88 213.625 166.152 212.675 165.66 211.6L172.85 207.44C172.371 206.801 171.676 206.357 170.894 206.192C170.112 206.026 169.297 206.15 168.6 206.54C168.076 206.775 167.628 207.153 167.308 207.631C166.988 208.108 166.809 208.666 166.79 209.24L164.79 209.43C164.79 209.43 164.44 206.77 167.65 204.91C168.277 204.533 168.975 204.291 169.7 204.198C170.425 204.105 171.162 204.164 171.863 204.371C172.565 204.578 173.215 204.928 173.774 205.4C174.333 205.871 174.788 206.453 175.11 207.11C176.8 210 176.06 213.11 173.33 214.69ZM172.33 213.09C173.023 212.672 173.541 212.017 173.787 211.247C174.034 210.476 173.992 209.642 173.67 208.9L168.31 212C168.709 212.675 169.356 213.166 170.113 213.37C170.87 213.574 171.676 213.473 172.36 213.09H172.33Z" fill="#FDFDFD"/>
<path d="M165.39 219L163.39 219.86L162.6 218C162.466 218.681 162.171 219.321 161.739 219.866C161.308 220.41 160.753 220.844 160.12 221.13C157.22 222.34 154.32 221.05 153.04 218C151.76 214.95 152.86 211.92 155.76 210.71C156.415 210.464 157.12 210.377 157.815 210.457C158.511 210.537 159.178 210.781 159.76 211.17L157.19 205.04L159.24 204.18L165.39 219ZM155.09 217.22C155.96 219.29 157.76 220.22 159.53 219.46C160.313 218.981 160.899 218.237 161.181 217.363C161.463 216.489 161.422 215.544 161.067 214.697C160.711 213.85 160.064 213.159 159.243 212.749C158.422 212.339 157.48 212.236 156.59 212.46C154.81 213.14 154.21 215.08 155.09 217.18V217.22Z" fill="#FDFDFD"/>
<path d="M146.83 225.7C146.16 225.871 145.457 225.874 144.786 225.708C144.114 225.542 143.494 225.213 142.98 224.75L143.5 226.65L141.35 227.24L138.41 216.44L140.55 215.84L141.04 217.63C141.241 216.966 141.606 216.363 142.1 215.875C142.595 215.388 143.203 215.032 143.87 214.84C146.87 214.03 149.61 215.7 150.47 218.84C151.33 221.98 149.82 224.89 146.83 225.7ZM142 221.19C142.186 222.119 142.732 222.936 143.519 223.463C144.307 223.989 145.271 224.182 146.2 224C148.04 223.51 148.92 221.69 148.32 219.5C147.72 217.31 146.05 216.2 144.21 216.7C143.33 217.014 142.606 217.658 142.194 218.496C141.781 219.335 141.711 220.301 142 221.19Z" fill="#FDFDFD"/>
<path d="M134.86 228.29L132.97 217.29L135.16 216.91L137.05 227.91L134.86 228.29ZM136.79 232.93C136.545 232.978 136.291 232.951 136.06 232.854C135.83 232.757 135.634 232.593 135.497 232.385C135.359 232.176 135.287 231.931 135.29 231.681C135.292 231.431 135.369 231.187 135.51 230.981C135.652 230.775 135.851 230.615 136.083 230.523C136.315 230.43 136.57 230.409 136.814 230.461C137.058 230.513 137.282 230.637 137.456 230.817C137.629 230.997 137.746 231.224 137.79 231.47C137.825 231.632 137.826 231.799 137.794 231.961C137.762 232.124 137.697 232.278 137.604 232.415C137.51 232.551 137.39 232.667 137.25 232.756C137.11 232.845 136.953 232.904 136.79 232.93Z" fill="#FDFDFD"/>
<path d="M125.13 229.61L124.92 227.61C125.863 227.48 126.721 226.993 127.315 226.248C127.909 225.503 128.193 224.559 128.11 223.61L127.54 218.06L129.76 217.83L130.89 229L128.68 229.22L128.46 227.12C128.186 227.8 127.731 228.393 127.144 228.832C126.557 229.271 125.86 229.54 125.13 229.61Z" fill="#FDFDFD"/>
<path d="M107.56 224.34L108.03 218.22L110.25 218.39L109.78 224.51L115.29 234.57L112.64 234.37L108.51 226.5L103.23 233.64L100.59 233.44L107.56 224.34Z" fill="#FDFDFD"/>
<path d="M95.46 227.75C94.341 227.588 93.2964 227.094 92.4606 226.333C91.6248 225.571 91.0362 224.577 90.7706 223.478C90.5051 222.379 90.5748 221.225 90.9707 220.166C91.3666 219.107 92.0707 218.191 92.9921 217.536C93.9135 216.881 95.01 216.516 96.1403 216.49C97.2707 216.464 98.383 216.776 99.3339 217.388C100.285 218 101.031 218.882 101.476 219.921C101.921 220.961 102.044 222.11 101.83 223.22C101.737 223.948 101.494 224.649 101.116 225.279C100.738 225.909 100.235 226.453 99.6363 226.879C99.038 227.304 98.358 227.602 97.6393 227.751C96.9205 227.901 96.1785 227.901 95.46 227.75ZM93.46 221.57C93.03 223.8 94 225.57 95.87 225.9C97.74 226.23 99.26 225.02 99.7 222.79C100.14 220.56 99.16 218.79 97.32 218.47C95.48 218.15 93.84 219.37 93.41 221.57H93.46Z" fill="#FDFDFD"/>
<path d="M84.6301 215.11C84.2629 214.969 83.8702 214.908 83.4777 214.93C83.0851 214.951 82.7016 215.056 82.3522 215.236C82.0029 215.417 81.6956 215.669 81.4505 215.976C81.2054 216.284 81.0281 216.639 80.9301 217.02L78.9301 223.14L76.8201 222.44L80.3501 211.83L82.4601 212.53L81.9501 214.07C82.4515 213.68 83.0409 213.418 83.6667 213.309C84.2925 213.199 84.9357 213.244 85.5401 213.44C86.1367 213.625 86.6887 213.931 87.1614 214.339C87.6341 214.748 88.0172 215.249 88.2868 215.813C88.5563 216.376 88.7064 216.989 88.7276 217.613C88.7488 218.238 88.6407 218.86 88.4101 219.44L86.3601 225.61L84.2401 224.9L86.2401 218.84C86.3972 218.492 86.48 218.114 86.483 217.732C86.4861 217.35 86.4095 216.971 86.258 216.62C86.1065 216.269 85.8835 215.953 85.6032 215.693C85.3229 215.433 84.9914 215.235 84.6301 215.11Z" fill="#FDFDFD"/>
<path d="M67.71 218.51L68.55 216.66C69.4272 217.015 70.4068 217.022 71.2893 216.681C72.1718 216.339 72.8908 215.673 73.3 214.82L75.6 209.73L77.6 210.65L73 220.84L71 219.92L71.87 217.99C71.2926 218.453 70.598 218.747 69.8635 218.839C69.1291 218.93 68.3836 218.817 67.71 218.51Z" fill="#FDFDFD"/>
<path d="M54.34 197.21L56.34 198.55L56.71 213.55L63.56 203.49L65.4 204.74L56.54 217.74L54.54 216.39L54.19 201.39L47.33 211.47L45.49 210.22L54.34 197.21Z" fill="#FDFDFD"/>
<path d="M40.8599 200.07C40.3606 199.591 39.9865 198.997 39.7703 198.339C39.5541 197.682 39.5025 196.982 39.6199 196.3L38.2799 197.75L36.6499 196.23L44.2599 188L45.9099 189.5L44.6399 190.86C45.3114 190.681 46.017 190.672 46.6927 190.835C47.3684 190.997 47.993 191.325 48.5099 191.79C50.7899 193.9 50.8199 197.12 48.5799 199.53C46.3399 201.94 43.1299 202.18 40.8599 200.07ZM42.1199 193.57C41.441 194.228 41.0479 195.126 41.0255 196.07C41.003 197.015 41.353 197.931 41.9999 198.62C43.3899 199.92 45.3999 199.7 46.9399 198.04C48.4799 196.38 48.5499 194.36 47.1499 193.04C46.4082 192.454 45.4669 192.182 44.527 192.281C43.5871 192.38 42.7232 192.843 42.1199 193.57Z" fill="#FDFDFD"/>
<path d="M39.16 187.33L34.7901 191.12L36.05 192.57L34.5801 193.85L33.3101 192.39L31 194.39L29.55 192.71L31.8601 190.71L30.2901 188.9L31.76 187.62L33.3301 189.44L37.62 185.72C37.9009 185.522 38.0943 185.223 38.1595 184.885C38.2248 184.548 38.1569 184.198 37.9701 183.91C37.7118 183.628 37.4195 183.38 37.1 183.17L38.3601 181.45C38.7945 181.773 39.1964 182.139 39.5601 182.54C39.8598 182.875 40.088 183.268 40.2308 183.695C40.3736 184.122 40.4279 184.573 40.3905 185.021C40.353 185.469 40.2246 185.905 40.0131 186.302C39.8015 186.699 39.5113 187.049 39.16 187.33Z" fill="#FDFDFD"/>
<path d="M32.5501 176.38C32.3398 176.047 32.0616 175.763 31.7337 175.546C31.4058 175.328 31.0357 175.183 30.6475 175.119C30.2594 175.054 29.8621 175.073 29.4817 175.173C29.1012 175.273 28.7463 175.453 28.4401 175.7L23.1501 179.41L21.8701 177.59L31.0001 171.17L32.3201 173L30.9901 173.93C31.6263 173.915 32.2565 174.057 32.825 174.343C33.3935 174.629 33.8829 175.05 34.2501 175.57C34.6203 176.073 34.8827 176.646 35.0206 177.255C35.1586 177.864 35.1692 178.495 35.0519 179.108C34.9345 179.721 34.6916 180.303 34.3386 180.818C33.9855 181.333 33.5298 181.77 33.0001 182.1L27.6701 185.83L26.3601 184L31.6101 180.33C31.9441 180.145 32.2358 179.892 32.4667 179.587C32.6975 179.283 32.8624 178.934 32.9508 178.562C33.0393 178.191 33.0493 177.805 32.9803 177.429C32.9113 177.053 32.7648 176.696 32.5501 176.38Z" fill="#FDFDFD"/>
<path d="M17 169.07L18.78 168.07C19.2649 168.886 20.0466 169.484 20.9616 169.737C21.8766 169.991 22.8542 169.88 23.69 169.43L28.57 166.72L29.66 168.72L19.86 174.15L18.79 172.15L20.64 171.15C19.9002 171.174 19.1683 170.992 18.5257 170.625C17.883 170.258 17.3549 169.72 17 169.07Z" fill="#FDFDFD"/>
<path d="M13.84 162.05C13.5752 161.412 13.4723 160.718 13.5403 160.031C13.6084 159.344 13.8453 158.684 14.23 158.11L12.43 158.89L11.55 156.89L21.82 152.47L22.73 154.47L21.01 155.21C21.6963 155.315 22.3452 155.591 22.8973 156.012C23.4494 156.433 23.887 156.986 24.17 157.62C25.4 160.47 24.17 163.42 21.1 164.72C18.03 166.02 15.07 164.9 13.84 162.05ZM17.63 156.62C16.7435 156.947 16.0206 157.609 15.6167 158.464C15.2129 159.318 15.1602 160.297 15.47 161.19C16.22 162.94 18.14 163.55 20.22 162.66C22.3 161.77 23.22 159.94 22.43 158.19C21.9941 157.353 21.2475 156.719 20.3503 156.426C19.453 156.132 18.4765 156.202 17.63 156.62Z" fill="#FDFDFD"/>
<path d="M5.31006 152.33L20.3101 147.47L21.0001 149.58L6.00006 154.45L5.31006 152.33Z" fill="#FDFDFD"/>
<path d="M2.36003 141.87L1.28003 135.14C1.15601 134.488 1.16927 133.817 1.31897 133.17C1.46867 132.523 1.75152 131.914 2.14949 131.383C2.54746 130.851 3.05182 130.408 3.63042 130.082C4.20902 129.756 4.84916 129.555 5.51003 129.49C6.57756 129.301 7.6776 129.464 8.64437 129.955C9.61115 130.445 10.3923 131.237 10.87 132.21L15.94 127.05L16.38 129.8L11.58 134.7L12.12 138.04L17.57 137.16L17.93 139.35L2.36003 141.87ZM5.88003 131.69C5.47314 131.716 5.07633 131.828 4.71567 132.018C4.35502 132.208 4.03868 132.472 3.78745 132.793C3.53622 133.115 3.35578 133.485 3.25799 133.881C3.16019 134.277 3.14726 134.689 3.22003 135.09L3.91003 139.36L10.19 138.36L9.50003 134.09C9.44313 133.683 9.30054 133.294 9.08168 132.946C8.86282 132.599 8.57269 132.302 8.23048 132.075C7.88827 131.848 7.50178 131.696 7.09658 131.63C6.69139 131.564 6.27673 131.584 5.88003 131.69Z" fill="#FDFDFD"/>
<path d="M6.50001 119.55C6.58609 120.395 7.0017 121.173 7.65681 121.713C8.31193 122.254 9.15378 122.515 10 122.44L15.71 122.3L15.77 124.53L0.0100098 124.91V122.68L6.35001 122.53C5.84174 122.206 5.41912 121.764 5.11797 121.242C4.81681 120.72 4.646 120.132 4.62001 119.53C4.58922 118.898 4.68995 118.265 4.91584 117.674C5.14172 117.082 5.48784 116.544 5.93235 116.093C6.37685 115.642 6.91007 115.288 7.49832 115.053C8.08658 114.819 8.71708 114.709 9.35001 114.73L15.57 114.58L15.63 116.8L9.63001 116.95C7.72001 117 6.46001 118.07 6.50001 119.55Z" fill="#FDFDFD"/>
<path d="M20.4 110.79L15.29 108L4.48999 111.48L4.72999 109.05L12.94 106.6L5.38999 102.65L5.62999 100.25L15.31 105.49L20.65 108.36L20.4 110.79Z" fill="#FDFDFD"/>
<path d="M14.28 96.9L8.62997 95.66L8.21997 97.55L6.30997 97.13L6.71997 95.25L3.71997 94.59L4.19997 92.42L7.19997 93.07L7.70997 90.73L9.61997 91.15L9.09997 93.49L14.64 94.7C14.9678 94.8072 15.3243 94.7839 15.6354 94.6348C15.9464 94.4858 16.1881 94.2226 16.31 93.9C16.3801 93.5243 16.407 93.1418 16.39 92.76H18.51C18.5151 93.3004 18.4648 93.8398 18.36 94.37C18.2688 94.8097 18.0891 95.2263 17.8318 95.5944C17.5745 95.9625 17.2449 96.2744 16.8633 96.5111C16.4816 96.7478 16.0557 96.9043 15.6116 96.9712C15.1675 97.038 14.7144 97.0138 14.28 96.9Z" fill="#FDFDFD"/>
<path d="M12.17 82.37C11.9643 83.2001 12.0962 84.0778 12.5367 84.8108C12.9772 85.5438 13.6905 86.0721 14.52 86.28L20 88.08L19.3 90.19L4.34998 85.19L4.99998 83.13L11 85.13C10.6349 84.6606 10.3881 84.1104 10.2802 83.5256C10.1723 82.9409 10.2065 82.3387 10.38 81.77C10.5625 81.1641 10.8689 80.6028 11.2797 80.1215C11.6905 79.6402 12.1967 79.2494 12.7664 78.974C13.3361 78.6985 13.9568 78.5444 14.5891 78.5213C15.2215 78.4983 15.8517 78.6068 16.44 78.84L22.35 80.84L21.65 82.95L16 81C14.17 80.42 12.63 81 12.17 82.37Z" fill="#FDFDFD"/>
<path d="M20.46 63.1601C20.2988 63.4763 20.2034 63.8219 20.1798 64.1761C20.1562 64.5302 20.2048 64.8854 20.3226 65.2202C20.4404 65.555 20.6251 65.8623 20.8653 66.1236C21.1055 66.3849 21.3963 66.5946 21.72 66.7401L27.53 69.7401L26.53 71.7401L20.84 68.8101C19.31 68.0301 17.84 68.3501 17.2 69.5601C17.0407 69.9035 16.9526 70.2757 16.9412 70.6541C16.9298 71.0325 16.9953 71.4093 17.1336 71.7617C17.2719 72.1141 17.4803 72.4348 17.7461 72.7043C18.0119 72.9739 18.3296 73.1868 18.68 73.3301L24.23 76.2001L23.23 78.2001L13.24 73.0001L14.24 71.0001L15.93 71.8701C15.5795 71.3737 15.3639 70.7948 15.3043 70.19C15.2447 69.5853 15.3432 68.9754 15.59 68.4201C15.9406 67.7903 16.4589 67.27 17.0873 66.917C17.7158 66.5639 18.4297 66.3919 19.15 66.4201C18.7389 65.7841 18.4958 65.0542 18.4434 64.2988C18.3909 63.5433 18.5308 62.7868 18.85 62.1001C19.1166 61.5599 19.4932 61.0814 19.9557 60.6954C20.4181 60.3094 20.9562 60.0244 21.5354 59.8586C22.1145 59.6929 22.7219 59.6501 23.3186 59.733C23.9153 59.8159 24.488 60.0227 25 60.3401L30.79 63.3401L29.79 65.3401L24.1 62.4101C22.6 61.5801 21.11 61.9001 20.46 63.1601Z" fill="#FDFDFD"/>
<path d="M33.31 49.5599C35.1491 49.5599 36.64 48.069 36.64 46.2299C36.64 44.3908 35.1491 42.8999 33.31 42.8999C31.4709 42.8999 29.98 44.3908 29.98 46.2299C29.98 48.069 31.4709 49.5599 33.31 49.5599Z" fill="#FDFDFD"/>
<path d="M198.63 192.84C200.469 192.84 201.96 191.349 201.96 189.51C201.96 187.671 200.469 186.18 198.63 186.18C196.791 186.18 195.3 187.671 195.3 189.51C195.3 191.349 196.791 192.84 198.63 192.84Z" fill="#FDFDFD"/>
</g>
<defs>
<clipPath id="clip0_281_115">
<rect width="234" height="234.57" fill="white"/>
</clipPath>
</defs>
</svg>
