<svg width="329" height="250" viewBox="0 0 329 250" fill="none" xmlns="http://www.w3.org/2000/svg">
<path d="M143.3 205.471C141.93 206.035 140.462 206.321 138.98 206.311C137.218 206.381 135.485 205.845 134.07 204.791C132.444 203.299 131.196 201.441 130.43 199.371L129 196.201L148.81 151.421H140.34L124.68 187.301L109.17 151.421H101.17L123 200.811C124.034 203.52 125.51 206.038 127.37 208.261C128.807 209.944 130.619 211.266 132.66 212.121C134.685 212.9 136.84 213.287 139.01 213.261C141.145 213.266 143.265 212.907 145.28 212.201C147.223 211.541 149.01 210.49 150.53 209.111L147 202.981C145.928 204.029 144.674 204.873 143.3 205.471Z" fill="#FDFDFD"/>
<path d="M322.59 147.261C323.315 147.295 324.039 147.178 324.716 146.919C325.394 146.659 326.011 146.263 326.528 145.754C327.045 145.245 327.452 144.635 327.722 143.962C327.993 143.289 328.121 142.567 328.1 141.841C328.116 141.152 327.984 140.466 327.713 139.832C327.442 139.197 327.039 138.627 326.53 138.161C326.003 137.668 325.384 137.283 324.707 137.029C324.031 136.775 323.312 136.657 322.59 136.681C321.865 136.658 321.143 136.781 320.466 137.042C319.789 137.303 319.172 137.697 318.65 138.201C318.14 138.694 317.739 139.287 317.47 139.943C317.202 140.599 317.072 141.303 317.09 142.011C317.076 142.707 317.208 143.399 317.476 144.041C317.745 144.683 318.145 145.263 318.65 145.741C319.172 146.246 319.789 146.64 320.466 146.901C321.143 147.162 321.865 147.285 322.59 147.261Z" fill="#FDFDFD"/>
<path d="M326.66 154.072H318.53V198.962H326.66V154.072Z" fill="#FDFDFD"/>
<path d="M80.23 151.481C77.4978 151.537 74.8254 152.291 72.4674 153.672C70.1095 155.053 68.1445 157.015 66.76 159.371V131.221H58.58V199.051H66.76V174.241C66.76 165.601 72.76 158.541 80.23 158.541C86.92 158.541 91.47 164.301 91.47 172.761V199.051H99.65V171.981C99.65 159.981 91.66 151.481 80.23 151.481Z" fill="#FDFDFD"/>
<path d="M175.31 191.622C172.05 191.622 169.73 188.372 169.73 184.742V158.452H180.05V151.292H169.73V138.562H161.55V151.292H153.55V158.452H161.55V185.302C161.83 193.482 167.41 199.242 175.31 199.242C177.405 199.229 179.491 198.981 181.53 198.502L180.05 190.982C178.505 191.4 176.911 191.615 175.31 191.622Z" fill="#FDFDFD"/>
<path d="M212.13 151.481C209.398 151.537 206.725 152.291 204.367 153.672C202.009 155.053 200.045 157.015 198.66 159.371V131.221H190.48V199.051H198.66V174.241C198.66 165.601 204.66 158.541 212.13 158.541C218.82 158.541 223.38 164.301 223.38 172.761V199.051H231.56V171.981C231.56 159.981 223.56 151.481 212.13 151.481Z" fill="#FDFDFD"/>
<path d="M291.54 151.101C288.308 151.216 285.158 152.157 282.393 153.834C279.627 155.511 277.336 157.868 275.74 160.681C274.399 157.885 272.315 155.512 269.715 153.823C267.115 152.133 264.1 151.191 261 151.101C256 151.101 250.88 154.451 248.18 159.191V150.981H240V198.981H248.18V171.481C248.18 164.321 253.18 158.101 260.45 158.101C266.58 158.101 270.95 163.211 270.95 170.551V198.981H279.13V169.881C279.13 163.181 284.13 158.171 291.21 158.171C297.52 158.171 301.89 163.281 301.89 170.621V199.051H310V170.051C310 158.911 302.5 151.101 291.54 151.101Z" fill="#FDFDFD"/>
<path d="M27.81 178.431C26.7477 176.952 25.8869 175.338 25.25 173.631C26.9262 173.58 28.5969 173.413 30.25 173.131C34.8261 172.024 38.8849 169.383 41.7506 165.648C44.6163 161.912 46.116 157.308 46 152.601C46 140.051 37.35 131.221 25 131.221H0V199.061H8.18V138.471H24.51C32.41 138.471 37.8 144.141 37.8 152.471C37.8 160.801 32.41 166.881 24.51 166.881H23.77C23.77 166.401 23.71 165.941 23.7 165.501V156.381H15.89V166.031C16.0321 172.057 17.9449 177.906 21.39 182.851C27.2 191.011 37.08 195.971 50.76 197.591L51.68 189.841C40.33 188.531 32.3 184.681 27.81 178.431Z" fill="#FDFDFD"/>
<path d="M59 220.811L54.78 219.131L50.52 229.861L51.59 230.281L53.23 226.141L55.83 227.141L57.22 232.491L58.57 233.031L57.16 227.581C58.0258 227.725 58.914 227.541 59.6523 227.067C60.3906 226.593 60.9264 225.861 61.1556 225.014C61.3848 224.166 61.2912 223.264 60.8929 222.482C60.4946 221.7 59.82 221.094 59 220.781V220.811ZM60 224.971C59.9003 225.285 59.7367 225.574 59.5197 225.82C59.3027 226.067 59.0369 226.267 58.7391 226.406C58.4413 226.545 58.1179 226.62 57.7894 226.628C57.4608 226.636 57.1342 226.576 56.83 226.451L53.65 225.191L55.51 220.501L58.69 221.771C58.9899 221.891 59.2617 222.072 59.4884 222.301C59.7151 222.531 59.8918 222.806 60.0073 223.107C60.1229 223.409 60.1748 223.731 60.1597 224.053C60.1447 224.376 60.0631 224.692 59.92 224.981L60 224.971Z" fill="#FDFDFD"/>
<path d="M69.27 232.982C69.631 232.224 69.8026 231.39 69.77 230.552C69.7445 229.835 69.4927 229.146 69.0507 228.581C68.6087 228.017 67.9993 227.608 67.31 227.412C66.3005 227.155 65.2314 227.29 64.3178 227.79C63.4041 228.29 62.7137 229.118 62.3855 230.106C62.0572 231.095 62.1156 232.171 62.5487 233.118C62.9818 234.065 63.7576 234.813 64.72 235.212C65.3451 235.492 66.0391 235.582 66.7151 235.47C67.3911 235.358 68.019 235.049 68.52 234.582L67.84 233.802C67.4665 234.132 67.0065 234.349 66.5141 234.427C66.0217 234.504 65.5172 234.44 65.06 234.242C64.4169 234.011 63.8825 233.55 63.5609 232.947C63.2392 232.345 63.1534 231.644 63.32 230.982L69.27 232.982ZM67 228.402C68.64 228.952 68.78 230.402 68.49 231.662L63.61 230.062C63.8644 229.41 64.3539 228.879 64.9817 228.571C65.6094 228.264 66.3297 228.203 67 228.402Z" fill="#FDFDFD"/>
<path d="M77.3599 230.511C76.8067 230.358 76.2217 230.362 75.6706 230.523C75.1196 230.684 74.6241 230.995 74.2399 231.421L74.6999 229.751L73.5899 229.451L70.4399 240.841L71.5499 241.141L72.9499 236.061C73.0806 236.618 73.3526 237.131 73.7398 237.552C74.127 237.972 74.6161 238.285 75.1599 238.461C76.193 238.69 77.2745 238.514 78.1812 237.968C79.088 237.423 79.7508 236.55 80.033 235.531C80.3152 234.511 80.1953 233.422 79.6979 232.488C79.2005 231.554 78.3636 230.846 77.3599 230.511ZM78.8999 235.201C78.8345 235.586 78.6902 235.953 78.4762 236.279C78.2622 236.606 77.983 236.884 77.6562 237.097C77.3294 237.31 76.962 237.454 76.5772 237.518C76.1923 237.582 75.7983 237.567 75.4199 237.471C74.7005 237.188 74.1113 236.649 73.7661 235.957C73.4208 235.265 73.3438 234.47 73.55 233.724C73.7562 232.979 74.2309 232.337 74.8827 231.921C75.5345 231.505 76.3172 231.345 77.0799 231.471C77.4537 231.583 77.8003 231.771 78.0978 232.023C78.3953 232.275 78.6372 232.587 78.8083 232.937C78.9793 233.288 79.0758 233.67 79.0915 234.06C79.1073 234.449 79.0421 234.838 78.8999 235.201Z" fill="#FDFDFD"/>
<path d="M90 233.631L89.61 235.311C89.4557 234.77 89.1636 234.278 88.7622 233.884C88.3608 233.489 87.8638 233.206 87.32 233.061C86.2828 232.879 85.2153 233.102 84.3376 233.684C83.4598 234.265 82.8389 235.162 82.6029 236.188C82.3668 237.214 82.5337 238.292 83.0691 239.199C83.6044 240.106 84.4674 240.772 85.48 241.061C86.0282 241.166 86.5943 241.124 87.1211 240.94C87.6478 240.755 88.1166 240.435 88.48 240.011L88.12 241.561L89.24 241.821L91.07 233.891L90 233.631ZM89.1 237.631C88.9537 238.389 88.5207 239.062 87.8912 239.509C87.2616 239.956 86.4839 240.143 85.72 240.031C85.0222 239.762 84.445 239.249 84.0943 238.589C83.7436 237.928 83.6429 237.163 83.8106 236.433C83.9782 235.704 84.4031 235.06 85.0073 234.619C85.6115 234.178 86.3544 233.969 87.1 234.031C87.4728 234.136 87.8212 234.314 88.1252 234.554C88.4292 234.794 88.6828 235.091 88.8714 235.429C89.06 235.768 89.18 236.14 89.2244 236.525C89.2687 236.909 89.2366 237.299 89.13 237.671L89.1 237.631Z" fill="#FDFDFD"/>
<path d="M95.72 231.222C95.58 231.194 95.4351 231.209 95.3037 231.264C95.1722 231.32 95.0601 231.413 94.9815 231.532C94.903 231.651 94.8615 231.79 94.8624 231.933C94.8634 232.075 94.9066 232.215 94.9866 232.333C95.0667 232.451 95.18 232.542 95.3122 232.596C95.4443 232.649 95.5894 232.662 95.729 232.633C95.8686 232.604 95.9965 232.534 96.0963 232.433C96.1962 232.331 96.2636 232.202 96.29 232.062C96.3118 231.969 96.3141 231.872 96.2967 231.778C96.2794 231.685 96.2427 231.595 96.1892 231.517C96.1356 231.438 96.0663 231.371 95.9855 231.32C95.9047 231.269 95.8143 231.236 95.72 231.222ZM94.47 234.562L92.87 242.562L94 242.792L95.6 234.792L94.47 234.562Z" fill="#FDFDFD"/>
<path d="M99.7099 237.301L100.01 235.621L98.8699 235.411L97.4399 243.411L98.5699 243.611L99.3099 239.491C99.465 238.745 99.8988 238.085 100.523 237.647C101.147 237.208 101.915 237.024 102.67 237.131L102.87 236.031C102.277 235.919 101.664 235.979 101.104 236.204C100.544 236.429 100.06 236.81 99.7099 237.301Z" fill="#FDFDFD"/>
<path d="M119.42 235.081L114.89 240.511L111.89 234.111L110.53 233.931L114.18 241.501L113.6 245.981L114.74 246.131L115.32 241.651L120.78 235.261L119.42 235.081Z" fill="#FDFDFD"/>
<path d="M124.24 238.982C123.424 238.85 122.586 238.966 121.837 239.315C121.087 239.665 120.46 240.231 120.036 240.941C119.612 241.651 119.411 242.472 119.459 243.297C119.506 244.123 119.801 244.915 120.304 245.572C120.807 246.228 121.496 246.718 122.281 246.978C123.065 247.239 123.91 247.258 124.706 247.033C125.502 246.807 126.212 246.349 126.744 245.716C127.276 245.082 127.605 244.304 127.69 243.482C127.782 242.956 127.764 242.418 127.637 241.9C127.511 241.383 127.278 240.897 126.953 240.474C126.629 240.051 126.22 239.7 125.753 239.443C125.286 239.186 124.771 239.029 124.24 238.982ZM126.55 243.362C126.43 243.876 126.165 244.346 125.785 244.714C125.405 245.081 124.928 245.332 124.409 245.435C123.891 245.539 123.354 245.49 122.862 245.296C122.37 245.102 121.945 244.771 121.637 244.341C121.329 243.912 121.151 243.402 121.125 242.875C121.099 242.347 121.225 241.822 121.489 241.364C121.753 240.906 122.144 240.534 122.614 240.293C123.084 240.051 123.614 239.95 124.14 240.002C124.525 240.05 124.896 240.178 125.229 240.376C125.563 240.575 125.852 240.84 126.078 241.156C126.304 241.471 126.463 241.83 126.544 242.209C126.625 242.589 126.627 242.981 126.55 243.362Z" fill="#FDFDFD"/>
<path d="M136.45 240.061L136.08 245.061C136.067 245.373 135.99 245.678 135.853 245.958C135.717 246.238 135.524 246.487 135.288 246.69C135.051 246.892 134.775 247.044 134.477 247.135C134.179 247.226 133.866 247.255 133.556 247.22C133.247 247.185 132.948 247.087 132.678 246.931C132.408 246.775 132.173 246.566 131.988 246.316C131.802 246.065 131.671 245.779 131.6 245.476C131.53 245.172 131.523 244.858 131.58 244.551L131.93 239.761L130.78 239.671L130.42 244.591C130.37 245.026 130.41 245.465 130.535 245.884C130.661 246.302 130.871 246.691 131.151 247.026C131.432 247.361 131.778 247.635 132.168 247.832C132.558 248.029 132.984 248.144 133.42 248.171C133.901 248.181 134.379 248.081 134.816 247.878C135.252 247.675 135.637 247.376 135.94 247.001L135.85 248.221L137 248.301L137.6 240.181L136.45 240.061Z" fill="#FDFDFD"/>
<path d="M141.61 242.082L141.7 240.372L140.55 240.312L140.14 248.442L141.29 248.502L141.5 244.312C141.56 243.558 141.903 242.855 142.459 242.344C143.015 241.832 143.744 241.549 144.5 241.552L144.55 240.432C143.955 240.405 143.364 240.545 142.844 240.836C142.325 241.128 141.897 241.559 141.61 242.082Z" fill="#FDFDFD"/>
<path d="M160.13 237.461L160.02 247.071L153.1 237.381H152L151.82 248.981H153L153.11 239.381L160 248.981H161.15L161.28 237.431L160.13 237.461Z" fill="#FDFDFD"/>
<path d="M172 240.731H170.85V242.461C170.569 241.973 170.166 241.566 169.681 241.28C169.195 240.994 168.643 240.84 168.08 240.831C167.041 240.922 166.076 241.403 165.379 242.178C164.682 242.953 164.306 243.964 164.326 245.006C164.346 246.048 164.762 247.044 165.488 247.791C166.215 248.539 167.199 248.982 168.24 249.031C168.807 249.008 169.357 248.833 169.832 248.523C170.307 248.213 170.69 247.781 170.94 247.271V248.871H172.09L172 240.731ZM168.27 248.031C167.511 247.961 166.805 247.614 166.286 247.055C165.767 246.497 165.472 245.767 165.457 245.005C165.442 244.243 165.708 243.502 166.205 242.924C166.702 242.346 167.394 241.971 168.15 241.871C168.909 241.942 169.615 242.289 170.134 242.848C170.653 243.406 170.948 244.136 170.963 244.898C170.978 245.66 170.711 246.401 170.215 246.979C169.718 247.557 169.026 247.932 168.27 248.031Z" fill="#FDFDFD"/>
<path d="M178.7 247.481C178.445 247.552 178.184 247.595 177.92 247.611C177.766 247.603 177.616 247.563 177.477 247.496C177.339 247.429 177.215 247.335 177.113 247.22C177.01 247.105 176.932 246.97 176.882 246.825C176.831 246.679 176.811 246.525 176.82 246.371L176.62 241.581L178.37 241.501L178.32 240.501L176.58 240.571L176.49 238.461H175.34L175.43 240.571L174.1 240.631V241.631H175.43L175.64 246.521C175.642 246.814 175.704 247.103 175.821 247.372C175.938 247.64 176.108 247.882 176.321 248.083C176.534 248.284 176.786 248.44 177.06 248.541C177.335 248.642 177.628 248.686 177.92 248.671C178.257 248.661 178.593 248.614 178.92 248.531L178.7 247.481Z" fill="#FDFDFD"/>
<path d="M187.93 239.901L186.78 239.981L187.1 244.981C187.127 245.29 187.091 245.601 186.993 245.895C186.895 246.189 186.739 246.46 186.533 246.691C186.326 246.922 186.075 247.108 185.794 247.239C185.513 247.369 185.208 247.44 184.899 247.449C184.589 247.457 184.281 247.402 183.994 247.286C183.706 247.171 183.445 246.998 183.227 246.778C183.009 246.558 182.838 246.296 182.725 246.008C182.612 245.719 182.559 245.411 182.57 245.101L182.26 240.311L181.11 240.381L181.43 245.301C181.438 245.738 181.536 246.167 181.716 246.565C181.896 246.962 182.156 247.318 182.479 247.611C182.802 247.904 183.182 248.128 183.595 248.269C184.008 248.41 184.445 248.466 184.88 248.431C185.359 248.376 185.818 248.212 186.224 247.952C186.629 247.692 186.97 247.343 187.22 246.931L187.3 248.141L188.45 248.071L187.93 239.901Z" fill="#FDFDFD"/>
<path d="M195 240.341L194.9 239.231C194.302 239.272 193.728 239.481 193.245 239.835C192.761 240.189 192.389 240.674 192.17 241.231L192.02 239.531L190.87 239.631L191.58 247.741L192.73 247.641L192.36 243.471C192.322 242.712 192.573 241.967 193.063 241.386C193.553 240.805 194.245 240.432 195 240.341Z" fill="#FDFDFD"/>
<path d="M204.35 238.312L203.21 238.432L203.4 240.152C203.073 239.693 202.633 239.327 202.124 239.087C201.614 238.847 201.052 238.742 200.49 238.782C199.447 238.949 198.509 239.511 197.87 240.351C197.23 241.191 196.939 242.246 197.056 243.295C197.173 244.345 197.689 245.309 198.498 245.988C199.307 246.667 200.346 247.008 201.4 246.942C201.962 246.865 202.493 246.639 202.938 246.287C203.383 245.936 203.726 245.471 203.93 244.942L204.11 246.532L205.25 246.402L204.35 238.312ZM201.35 245.922C200.59 245.917 199.859 245.633 199.295 245.125C198.73 244.617 198.372 243.919 198.288 243.164C198.204 242.409 198.401 241.65 198.84 241.03C199.279 240.41 199.93 239.973 200.67 239.802C201.429 239.806 202.161 240.09 202.725 240.598C203.29 241.106 203.648 241.804 203.732 242.559C203.815 243.314 203.619 244.073 203.18 244.693C202.741 245.313 202.09 245.75 201.35 245.922Z" fill="#FDFDFD"/>
<path d="M208 234.391L206.85 234.541L208.36 245.981L209.5 245.831L208 234.391Z" fill="#FDFDFD"/>
<path d="M222.32 239.221C223.075 238.925 223.703 238.374 224.094 237.663C224.484 236.953 224.614 236.128 224.46 235.331C224.396 234.86 224.234 234.407 223.985 234.001C223.736 233.596 223.405 233.246 223.014 232.976C222.623 232.705 222.179 232.518 221.712 232.428C221.245 232.338 220.764 232.346 220.3 232.451L215.83 233.251L217.83 244.631L218.97 244.431L218.19 240.031L220.95 239.541L224.95 243.371L226.39 243.111L222.32 239.221ZM218 238.981L217.12 233.981L220.5 233.391C220.816 233.327 221.143 233.328 221.458 233.395C221.774 233.463 222.073 233.594 222.335 233.782C222.598 233.969 222.819 234.209 222.985 234.486C223.151 234.763 223.258 235.071 223.3 235.391C223.379 235.711 223.391 236.043 223.335 236.367C223.279 236.691 223.156 237 222.975 237.274C222.794 237.549 222.557 237.782 222.281 237.961C222.005 238.139 221.695 238.259 221.37 238.311L218 238.981Z" fill="#FDFDFD"/>
<path d="M235.39 236.461C235.328 236.023 235.177 235.602 234.945 235.224C234.714 234.847 234.407 234.521 234.044 234.268C233.68 234.014 233.269 233.839 232.835 233.751C232.4 233.664 231.953 233.668 231.52 233.761C231.034 233.876 230.589 234.124 230.236 234.477C229.883 234.831 229.635 235.275 229.52 235.761L228.46 230.931L227.34 231.171L229.79 242.461L230.92 242.221L230.02 238.061C229.831 237.398 229.907 236.688 230.231 236.08C230.556 235.472 231.104 235.013 231.76 234.801C232.94 234.541 233.98 235.361 234.3 236.801L235.3 241.271L236.42 241.031L235.39 236.461Z" fill="#FDFDFD"/>
<path d="M243.58 230.801L242.73 237.691L238.52 232.111L237.3 232.431L242.48 239.181L241.96 243.271L243.16 242.951L243.71 238.661L244.79 230.481L243.58 230.801Z" fill="#FDFDFD"/>
<path d="M253.23 235.302C253.004 235.437 252.762 235.544 252.51 235.622C252.36 235.651 252.206 235.65 252.057 235.619C251.907 235.589 251.766 235.529 251.639 235.444C251.513 235.358 251.405 235.249 251.321 235.121C251.237 234.994 251.179 234.851 251.15 234.702L249.76 230.102L251.43 229.602L251.14 228.602L249.47 229.102L248.86 227.102L247.76 227.432L248.37 229.432L247.1 229.812L247.39 230.812L248.66 230.432L250.07 235.122C250.146 235.405 250.278 235.67 250.459 235.901C250.639 236.132 250.865 236.323 251.122 236.464C251.379 236.605 251.662 236.693 251.954 236.722C252.246 236.751 252.54 236.72 252.82 236.632C253.132 236.54 253.434 236.416 253.72 236.262L253.23 235.302Z" fill="#FDFDFD"/>
<path d="M261.8 228.711C261.688 228.283 261.489 227.883 261.214 227.535C260.94 227.188 260.596 226.901 260.205 226.694C259.814 226.486 259.384 226.361 258.943 226.328C258.501 226.295 258.058 226.354 257.64 226.501C257.171 226.667 256.758 226.96 256.446 227.346C256.133 227.733 255.934 228.199 255.87 228.691L254.24 223.981L253.15 224.361L256.95 235.271L258 234.981L256.6 230.981C256.335 230.346 256.326 229.633 256.576 228.991C256.826 228.35 257.315 227.83 257.94 227.541C259.07 227.141 260.21 227.831 260.7 229.221L262.2 233.541L263.29 233.161L261.8 228.711Z" fill="#FDFDFD"/>
<path d="M275.59 222.461C275.443 222.086 275.22 221.745 274.934 221.46C274.649 221.174 274.308 220.952 273.932 220.805C273.556 220.658 273.154 220.591 272.751 220.608C272.348 220.625 271.952 220.724 271.59 220.901C271.09 221.133 270.66 221.492 270.343 221.944C270.027 222.395 269.836 222.922 269.79 223.471C269.384 223.12 268.888 222.888 268.358 222.804C267.828 222.719 267.285 222.784 266.79 222.991C266.381 223.198 266.03 223.504 265.77 223.881C265.509 224.259 265.348 224.695 265.3 225.151L264.75 223.881L263.69 224.331L266.94 231.811L267.99 231.351L266.07 226.981C265.946 226.711 265.877 226.419 265.866 226.121C265.855 225.824 265.903 225.528 266.007 225.249C266.111 224.97 266.269 224.715 266.472 224.497C266.675 224.28 266.919 224.104 267.19 223.981C267.436 223.881 267.7 223.832 267.966 223.838C268.231 223.845 268.493 223.906 268.733 224.019C268.974 224.132 269.189 224.294 269.364 224.494C269.539 224.694 269.67 224.928 269.75 225.181L271.75 229.761L272.81 229.311L270.75 224.581C270.641 224.325 270.587 224.048 270.591 223.769C270.595 223.49 270.657 223.215 270.774 222.962C270.891 222.708 271.06 222.482 271.269 222.298C271.478 222.114 271.724 221.975 271.99 221.891C272.239 221.796 272.505 221.751 272.772 221.76C273.038 221.769 273.301 221.832 273.543 221.943C273.785 222.055 274.003 222.214 274.182 222.412C274.362 222.609 274.501 222.84 274.59 223.091L276.59 227.671L277.65 227.211L275.59 222.461Z" fill="#FDFDFD"/>
<path d="M165 80.9814C161.02 75.2688 158.808 68.5117 158.64 61.5514V50.4014H167.64V60.9814C167.64 61.4914 167.64 61.9814 167.72 62.5714H168.58C177.7 62.5714 183.93 55.7014 183.93 45.9314C183.93 36.1614 177.7 29.7214 168.58 29.7214H149.75V96.4314C160.923 99.8176 172.936 99.1302 183.65 94.4914C175.56 91.5314 169.32 86.9814 165 80.9814Z" fill="#FDFDFD"/>
<path d="M169.15 21.3015C183.42 21.3015 193.41 31.5015 193.41 45.9915C193.547 51.4231 191.821 56.7379 188.519 61.0529C185.217 65.3679 180.538 68.4233 175.26 69.7115C173.343 70.0397 171.404 70.2335 169.46 70.2915C170.215 72.2606 171.224 74.1229 172.46 75.8315C176.86 81.9614 184.22 86.0815 194.37 88.1415C202.733 81.6284 208.772 72.5922 211.591 62.3744C214.41 52.1565 213.859 41.302 210.019 31.4223C206.18 21.5426 199.256 13.1645 190.277 7.53201C181.298 1.89952 170.741 -0.68709 160.175 0.156233C149.609 0.999556 139.597 5.22784 131.625 12.2133C123.653 19.1988 118.146 28.5689 115.922 38.9326C113.698 49.2963 114.876 60.1008 119.28 69.7421C123.684 79.3834 131.08 87.3473 140.37 92.4515V21.3015H169.15Z" fill="#FDFDFD"/>
</svg>
